<?xml version="1.0" encoding="UTF-8"?>
<svg version="1.1" xmlns="http://www.w3.org/2000/svg" width="512" height="512">
<path d="M0 0 C1.72173683 -0.00503792 1.72173683 -0.00503792 3.47825623 -0.01017761 C7.23860786 -0.01960761 10.99891465 -0.0216263 14.75927734 -0.02270508 C17.39000466 -0.02592176 20.02073179 -0.02928614 22.65145874 -0.03279114 C28.15029185 -0.03915967 33.64911292 -0.04067613 39.14794922 -0.04003906 C45.48449044 -0.03943742 51.82094679 -0.05001598 58.15746653 -0.06578273 C64.28331383 -0.08047598 70.40912059 -0.0840261 76.53498459 -0.08342934 C79.1288424 -0.08460681 81.72270088 -0.08901548 84.31654739 -0.0967617 C87.94417601 -0.10658643 91.57158643 -0.10367424 95.19921875 -0.09765625 C96.26231766 -0.10327576 97.32541656 -0.10889526 98.42073059 -0.11468506 C109.19415116 -0.0693946 117.87158027 1.4377239 125.91943359 8.96948242 C132.54900586 16.04380586 134.60637075 22.4480641 134.31396484 32.12182617 C133.34819398 40.6162199 129.38811905 47.54253682 122.97021484 53.14526367 C117.88840334 56.36810369 113.01055768 58.26611685 106.9624939 58.28329468 C105.41078491 58.29147469 105.41078491 58.29147469 103.82772827 58.29981995 C102.12587875 58.30138344 102.12587875 58.30138344 100.38964844 58.30297852 C98.59651215 58.31059959 98.59651215 58.31059959 96.76715088 58.31837463 C93.48583793 58.33189101 90.20453829 58.34127252 86.92320967 58.349792 C83.48406792 58.36052037 80.04497273 58.37910157 76.60586548 58.39761353 C64.89157882 58.45947959 53.1772963 58.51347183 41.46289062 58.54663086 C34.99354375 58.56502339 28.52433326 58.59401996 22.05508673 58.63463557 C18.63481798 58.65563394 15.21472059 58.67115253 11.794384 58.67344284 C7.97176991 58.67836139 4.14965982 58.70154641 0.32714844 58.72875977 C-0.79527252 58.72575363 -1.91769348 58.7227475 -3.0741272 58.71965027 C-12.17984792 58.8157226 -19.76486434 60.36634939 -27.02978516 66.14526367 C-33.4248469 72.83777015 -36.14811251 80.09624316 -36.16121292 89.2459898 C-36.16697464 90.76172416 -36.16697464 90.76172416 -36.17285275 92.30807942 C-36.17198627 93.41117807 -36.17111979 94.51427673 -36.17022705 95.65080261 C-36.17319817 96.82816571 -36.1761693 98.00552881 -36.17923045 99.21856958 C-36.18640225 102.48302997 -36.18908911 105.74745827 -36.18982792 109.01192534 C-36.19168133 112.53422166 -36.19923013 116.05650664 -36.20596313 119.57879639 C-36.21953551 127.27933781 -36.22556951 134.97987401 -36.22997379 142.68042541 C-36.23273815 147.49057294 -36.23697587 152.30071846 -36.24147797 157.11086464 C-36.25366936 170.43409569 -36.26396883 183.75732513 -36.26735306 197.08056164 C-36.26757262 197.93301006 -36.26779219 198.78545849 -36.26801841 199.66373869 C-36.26823669 200.51820356 -36.26845497 201.37266844 -36.26867986 202.25302619 C-36.26912332 203.98443933 -36.26956988 205.71585248 -36.27001953 207.44726562 C-36.27035168 208.73552121 -36.27035168 208.73552121 -36.27069053 210.04980216 C-36.27463745 223.96195105 -36.2920888 237.87404752 -36.31537905 251.78617617 C-36.33910896 266.07652165 -36.35155566 280.36684085 -36.35272098 294.65720636 C-36.35363683 302.67788919 -36.35936654 310.69850372 -36.37754059 318.71916771 C-36.39296374 325.54976542 -36.39804901 332.38027373 -36.38980249 339.21088555 C-36.38590375 342.69365981 -36.3867873 346.17625416 -36.40085983 349.65900612 C-36.4135655 353.44109392 -36.40770933 357.2227218 -36.39727783 361.00480652 C-36.40533424 362.09675156 -36.41339064 363.18869661 -36.42169118 364.3137309 C-36.35548293 374.59713326 -34.44524283 383.62937091 -27.02978516 391.14526367 C-18.64485199 397.96778693 -9.57651092 398.44192101 0.83651733 398.40596008 C2.01644371 398.40978563 3.19637008 398.41361118 4.4120518 398.41755265 C7.66977271 398.42605836 10.92734874 398.42565951 14.18507338 398.42137206 C17.70527795 398.41889868 21.22545635 398.42792658 24.74565125 398.43540955 C31.63541941 398.44814162 38.52514857 398.4499521 45.41492651 398.44760928 C51.01677126 398.44582429 56.6186042 398.44757966 62.22044754 398.45183372 C63.01855579 398.45242891 63.81666404 398.4530241 64.63895739 398.45363733 C66.26046081 398.45484911 67.88196422 398.45606325 69.50346763 398.4572797 C84.70096233 398.4681495 99.89843483 398.46599541 115.09593077 398.45989486 C128.98849314 398.45472626 142.88098537 398.46598064 156.77353387 398.48499308 C171.05041873 398.50438119 185.32727043 398.51262577 199.60416853 398.50886983 C207.61474073 398.50695925 215.62525323 398.50943132 223.63581467 398.52358437 C230.4553669 398.53551155 237.27482272 398.53688809 244.09437631 398.5247942 C247.57109092 398.51891485 251.04762928 398.51777971 254.52433205 398.5297966 C258.29969926 398.54025649 262.07459472 398.53216864 265.84994507 398.51948547 C266.93984375 398.52685976 268.02974244 398.53423404 269.15266836 398.54183179 C278.28931874 398.47738521 286.7108486 397.05405015 293.97021484 391.14526367 C300.28037117 384.39486389 303.0886763 378.06943552 303.10151672 368.89703369 C303.1055249 367.85981171 303.10953308 366.82258972 303.11366272 365.75393677 C303.113134 364.62656097 303.11260529 363.49918518 303.11206055 362.33764648 C303.11553497 361.14193024 303.1190094 359.94621399 303.12258911 358.71426392 C303.1299378 356.11864944 303.13528791 353.52302871 303.13887978 350.92740631 C303.14481161 346.81628764 303.16137308 342.70525455 303.18022156 338.59417725 C303.18655843 337.18402486 303.19288406 335.77387243 303.19919872 334.36371994 C303.20236453 333.65764146 303.20553035 332.95156299 303.20879209 332.22408819 C303.2507866 322.65876597 303.28383084 313.09348447 303.29614258 303.52807617 C303.30454234 297.06820915 303.32710212 290.60855527 303.36549824 284.14879489 C303.38519223 280.73521146 303.3976858 277.32194615 303.39266396 273.90830231 C303.39030752 270.09536315 303.41250573 266.28328206 303.44018555 262.47045898 C303.43358414 261.35118011 303.42698273 260.23190125 303.42018127 259.07870483 C303.5373469 249.22534092 306.33435377 242.10739219 313.03662109 234.87182617 C319.65965219 228.9579277 327.19456219 227.76049216 335.80615234 227.87573242 C343.93903176 228.56853326 349.79132295 231.98450901 355.27880859 237.92651367 C360.11662061 244.27265045 362.08865632 251.32763254 362.10392761 259.23922729 C362.1081926 260.24253586 362.11245758 261.24584442 362.11685181 262.27955627 C362.11639862 263.36945358 362.11594543 264.45935089 362.11547852 265.58227539 C362.12051643 267.31750206 362.12051643 267.31750206 362.12565613 269.08778381 C362.13516268 272.91685051 362.13710957 276.7458734 362.13818359 280.57495117 C362.14058508 282.56951378 362.14298841 284.5640764 362.14564401 286.55863869 C362.1537828 292.8375169 362.15622906 299.11638079 362.15551758 305.39526367 C362.15491931 311.83721503 362.16542202 318.27908196 362.18126124 324.721012 C362.19442358 330.27544539 362.19969775 335.82985152 362.19906217 341.38430035 C362.19880939 344.69071201 362.20248256 347.99703295 362.21224022 351.30343246 C362.2926687 381.39047152 359.28852761 409.0370668 337.47070312 431.67260742 C323.47829783 445.4054725 303.47661629 456.24131913 283.54266644 456.27948475 C281.91753031 456.28617151 281.91753031 456.28617151 280.25956315 456.29299337 C279.07495635 456.292809 277.89034955 456.29262464 276.66984558 456.29243469 C275.40687773 456.29611138 274.14390987 456.29978807 272.84267026 456.30357617 C269.33896577 456.31357441 265.83527841 456.31730947 262.33156168 456.31996548 C258.55147809 456.32387517 254.77140798 456.33345324 250.99133301 456.34217834 C241.86163414 456.36192703 232.7319342 456.37200827 223.60221931 456.38090613 C219.29822577 456.38529283 214.99423344 456.39065876 210.69024086 456.395895 C196.37364934 456.41290791 182.05705857 456.42739973 167.74045849 456.43464375 C164.02643521 456.43655352 160.31241193 456.43847386 156.59838867 456.44042969 C155.67533195 456.44091343 154.75227523 456.44139717 153.8012471 456.44189557 C138.86495966 456.45018702 123.92875255 456.47550867 108.99250015 456.50801037 C93.64217455 456.5411394 78.29188967 456.5590979 62.94152814 456.56228799 C54.32930192 456.564448 45.71719272 456.57312147 37.10500145 456.59874916 C29.76658399 456.62053639 22.42831197 456.62846748 15.08986583 456.61878238 C11.35111821 456.61426037 7.61267016 456.61599989 3.87396431 456.63554382 C-30.80679743 456.8068494 -30.80679743 456.8068494 -46.34228516 448.39526367 C-47.00123779 448.05019775 -47.66019043 447.70513184 -48.33911133 447.34960938 C-69.05960525 436.22544414 -83.22381684 419.16077135 -91.1002121 397.15454865 C-95.08580918 383.74428393 -94.60247706 370.09444727 -94.55268383 356.22988868 C-94.54354369 352.45747557 -94.55764696 348.68513346 -94.56860352 344.91273499 C-94.58629876 337.5434115 -94.58258918 330.17425187 -94.57095295 322.80492222 C-94.56188323 316.81048125 -94.56070985 310.81608589 -94.56504822 304.82164001 C-94.56566115 303.96529007 -94.56627408 303.10894013 -94.56690559 302.22664019 C-94.56818462 300.48644943 -94.56948147 298.74625867 -94.57079595 297.00606793 C-94.5821754 280.72578087 -94.56912956 264.44558422 -94.54759449 248.16531199 C-94.52972591 234.22580404 -94.53283076 220.28642938 -94.55126953 206.34692383 C-94.57272297 190.1209947 -94.58107701 173.89514461 -94.56882048 157.66920328 C-94.56754641 155.93576464 -94.56628893 154.20232599 -94.56504822 152.46888733 C-94.56443112 151.61622023 -94.56381401 150.76355314 -94.56317821 149.88504764 C-94.5597387 143.9046231 -94.56552331 137.92424911 -94.57496643 131.9438324 C-94.58623768 124.64591432 -94.58303948 117.34816812 -94.56184345 110.05026948 C-94.55140143 106.33374102 -94.54709252 102.61749809 -94.56044006 98.90097237 C-94.6744809 64.28035564 -94.6744809 64.28035564 -86.15478516 48.70776367 C-85.80746338 48.04583008 -85.4601416 47.38389648 -85.10229492 46.7019043 C-82.39654624 41.62543404 -79.51221846 36.73278914 -76.02978516 32.14526367 C-75.55669922 31.5084668 -75.08361328 30.87166992 -74.59619141 30.21557617 C-61.71630375 14.22010472 -41.0206397 3.29748371 -20.67948341 0.86410046 C-13.7712757 0.20030506 -6.93741208 -0.00296864 0 0 Z " fill="#ffffff" transform="translate(94.02978515625,55.854736328125)"/>
<path d="M0 0 C1.81936845 -0.00514504 3.63873191 -0.01243072 5.45808411 -0.02168274 C10.37548417 -0.04012909 15.29233901 -0.02730153 20.20971608 -0.00759244 C25.36779823 0.0088489 30.52584734 -0.00002634 35.6839447 -0.00511169 C44.34309552 -0.00962612 53.00202987 0.00619784 61.66113281 0.03417969 C71.65873847 0.06623868 81.65595402 0.06620974 91.6535874 0.04896492 C101.29010326 0.03307831 110.92647671 0.03984649 120.56298637 0.05690193 C124.65569305 0.06375745 128.74828506 0.06275542 132.84099007 0.05535698 C137.66338098 0.04767218 142.48533011 0.0598918 147.3076458 0.08720589 C149.07283594 0.09406742 150.83806752 0.09421174 152.60325623 0.08699036 C163.2756941 0.0483739 171.1482001 0.73725288 180.18334961 6.81860352 C186.46534633 13.24337289 189.08101448 20.11496658 189.08724976 28.9858551 C189.09163201 29.74090346 189.09601426 30.49595181 189.10052931 31.27388042 C189.11391616 33.81165847 189.12009598 36.34940179 189.1262207 38.88720703 C189.13412192 40.70391497 189.14239089 42.52062134 189.15100098 44.33732605 C189.17722448 50.3115387 189.19253155 56.28575836 189.20678711 62.26000977 C189.21214715 64.31740765 189.21752466 66.3748055 189.22291946 68.43220329 C189.24455099 76.99264322 189.26328628 85.55308126 189.27454185 94.1135416 C189.29077073 106.37552416 189.32391973 118.6371893 189.3809427 130.8990522 C189.41967929 139.52340146 189.43917911 148.14766596 189.44446242 156.77209991 C189.44811151 161.92122992 189.46008543 167.07002141 189.49256516 172.21905708 C189.52271015 177.06760697 189.52893466 181.91561467 189.5171814 186.76423836 C189.51696118 188.53871179 189.52522288 190.31321085 189.54283524 192.08759689 C189.64551019 203.03227793 188.96764085 211.46685274 181.79272461 220.25219727 C174.23224203 226.76261282 167.65285783 229.26753418 157.62866211 228.90454102 C148.70927532 227.99967569 142.96401093 224.20561205 136.93334961 217.63110352 C133.36044575 212.74911918 131.82487225 208.12326153 131.77513123 202.12591553 C131.760448 200.77981705 131.760448 200.77981705 131.74546814 199.40652466 C131.73971268 198.42972748 131.73395721 197.4529303 131.72802734 196.4465332 C131.71812775 195.41207062 131.70822815 194.37760803 131.69802856 193.3117981 C131.66643877 189.89221486 131.64166598 186.47261773 131.61694336 183.05297852 C131.59637167 180.68214558 131.57537514 178.31131629 131.55397034 175.94049072 C131.49877196 169.69998124 131.44935276 163.45943878 131.40112305 157.21887207 C131.35089176 150.85104436 131.29521418 144.48326454 131.23999023 138.11547852 C131.13243596 125.62072777 131.03098486 113.12593543 130.93334961 100.63110352 C130.4391345 101.12645778 129.9449194 101.62181205 129.43572807 102.13217705 C100.14211494 131.4929294 70.84066993 160.84584541 41.52903873 190.18861039 C38.00929225 193.71210897 34.48961124 197.23567294 30.9699707 200.75927734 C30.26927472 201.46076026 29.56857873 202.16224318 28.84664953 202.88498316 C17.50234054 214.24234484 6.16334316 225.60499533 -5.1736989 236.96961042 C-16.80730341 248.63127289 -28.44660057 260.28723079 -40.09119797 271.93791658 C-47.27591796 279.12675218 -54.45616484 286.31999645 -61.63074726 293.51894978 C-66.55154331 298.45560783 -71.47785976 303.38671218 -76.40854031 308.31349757 C-79.25278969 311.15582614 -82.09455356 314.00052762 -84.92978477 316.85185432 C-87.5279212 319.46463198 -90.13295066 322.0703287 -92.74352622 324.67067603 C-94.12848363 326.05377365 -95.50605982 327.44425042 -96.88331795 328.835015 C-105.14749474 337.04004071 -112.21710713 341.99807583 -123.94165039 342.94360352 C-133.14609521 342.58405489 -139.32684536 339.41629597 -145.92993164 333.04125977 C-149.89018665 328.57420795 -152.48172051 323.62663482 -153.06665039 317.63110352 C-153.12981445 316.99817383 -153.19297852 316.36524414 -153.25805664 315.71313477 C-153.67300276 308.15040714 -151.91149647 301.23929079 -147.17443371 295.23115921 C-137.56364915 284.92754392 -127.57048993 274.99921651 -117.59866989 265.04705739 C-114.81922822 262.27197754 -112.04272184 259.49396339 -109.26583862 256.71632385 C-104.46690654 251.91687013 -99.66616258 247.11923513 -94.86414528 242.32286835 C-87.9214336 235.38832079 -80.98152006 228.45097836 -74.04226299 221.51297405 C-62.78078445 210.25367835 -51.51707956 198.99661263 -40.25195312 187.7409668 C-29.31587833 176.81408605 -18.38086552 165.88614431 -7.44726562 154.95678711 C-6.77210759 154.2818918 -6.09694955 153.60699648 -5.40133218 152.91164979 C-2.01390773 149.52553049 1.37349599 146.13939045 4.76088941 142.75324011 C32.81516449 114.70931371 60.87306185 86.66901366 88.93334961 58.63110352 C87.62313843 58.62523727 86.31292725 58.61937103 84.9630127 58.61332703 C72.60382227 58.55606601 60.24480721 58.48328637 47.88579559 58.3953886 C41.53219374 58.35069825 35.17865581 58.31143891 28.82495117 58.28466797 C22.69105463 58.25862208 16.55740426 58.21820989 10.42366028 58.16791725 C8.08579067 58.15125736 5.7478785 58.13973764 3.40995789 58.13348961 C0.13038443 58.12383929 -3.14856045 58.09576755 -6.42797852 58.06347656 C-7.39039459 58.06491165 -8.35281067 58.06634674 -9.34439087 58.06782532 C-18.77120851 57.9369192 -25.15020563 55.31236128 -32.08227539 48.82250977 C-38.19975989 42.06678377 -39.44775779 34.58999241 -39.34008789 25.72875977 C-38.6118291 17.47862809 -34.05652752 11.10909514 -28.06665039 5.63110352 C-19.5784293 -0.68978909 -10.06037232 -0.07246881 0 0 Z " fill="#ffffff" transform="translate(323.066650390625,-0.631103515625)"/>
</svg>
